<?xml version="1.0" standalone="no"?>
<!DOCTYPE svg PUBLIC "-//W3C//DTD SVG 20010904//EN"
 "http://www.w3.org/TR/2001/REC-SVG-20010904/DTD/svg10.dtd">
<svg version="1.0" xmlns="http://www.w3.org/2000/svg"
 width="202.000000pt" height="156.000000pt" viewBox="0 0 202.000000 156.000000"
 preserveAspectRatio="xMidYMid meet">

<g transform="translate(0.000000,156.000000) scale(0.100000,-0.100000)"
fill="#ffffff" stroke="none">
<path d="M620 1310 c-19 -19 -20 -33 -20 -357 0 -186 4 -343 8 -349 20 -31 54
-34 374 -34 277 0 327 2 346 16 l22 15 0 349 0 349 -22 15 c-19 14 -70 16
-355 16 -320 0 -334 -1 -353 -20z m290 -255 l0 -35 -110 0 -110 0 0 28 c0 16
3 32 7 35 3 4 53 7 110 7 l103 0 0 -35z m132 8 c8 -10 26 -37 39 -61 l23 -43
22 38 c39 67 54 83 78 83 12 0 25 -3 28 -6 4 -3 -15 -40 -40 -82 -37 -62 -47
-89 -52 -137 -5 -56 -7 -60 -32 -63 -27 -3 -28 -2 -28 47 0 43 -8 63 -54 140
-30 49 -52 92 -49 95 13 12 50 5 65 -11z m-132 -193 l0 -90 -30 0 -30 0 0 60
0 60 -40 0 c-38 0 -40 2 -40 30 l0 30 70 0 70 0 0 -90z"/>
<path d="M410 430 c0 -73 2 -80 20 -80 15 0 20 7 20 25 0 18 5 25 19 25 27 0
51 26 51 55 0 35 -26 55 -71 55 l-39 0 0 -80z m68 22 c5 -31 -24 -29 -31 3 -3
20 -1 25 12 23 9 -2 17 -13 19 -26z"/>
<path d="M550 430 c0 -63 3 -80 14 -80 9 0 16 12 18 33 2 24 8 33 26 35 19 3
22 -1 22 -32 0 -29 4 -36 20 -36 18 0 20 7 20 80 0 73 -2 80 -20 80 -16 0 -20
-7 -20 -30 0 -25 -4 -30 -25 -30 -21 0 -25 5 -25 30 0 20 -5 30 -15 30 -12 0
-15 -16 -15 -80z"/>
<path d="M700 430 c0 -73 2 -80 20 -80 16 0 20 7 20 38 l1 37 20 -37 c12 -25
27 -38 39 -38 20 0 20 1 5 30 -12 22 -13 35 -5 49 24 47 -1 81 -61 81 l-39 0
0 -80z m68 28 c-5 -32 -28 -35 -28 -4 0 17 5 26 16 26 10 0 14 -7 12 -22z"/>
<path d="M869 498 c-1 -7 -1 -17 0 -21 1 -5 -5 -31 -14 -59 -8 -29 -15 -55
-15 -60 0 -14 28 -9 34 7 3 8 16 15 30 15 13 0 26 -7 30 -15 8 -22 40 -19 33
3 -2 9 -13 45 -22 80 -17 57 -20 62 -47 62 -15 0 -29 -6 -29 -12z m50 -80 c1
-5 -6 -8 -14 -8 -16 0 -19 9 -8 36 6 16 7 16 14 -2 4 -10 8 -22 8 -26z"/>
<path d="M1006 494 c-28 -28 -12 -64 34 -79 34 -11 24 -35 -15 -35 -42 0 -49
-24 -10 -34 38 -10 79 14 83 47 3 22 -3 31 -32 48 -44 26 -46 39 -6 39 20 0
30 5 30 15 0 21 -64 20 -84 -1z"/>
<path d="M1130 430 l0 -80 45 0 c33 0 45 4 45 15 0 10 -10 15 -30 15 -23 0
-30 4 -30 20 0 15 7 20 25 20 16 0 25 6 25 15 0 9 -9 15 -25 15 -34 0 -33 28
2 32 48 6 39 28 -11 28 l-46 0 0 -80z"/>
<path d="M1263 502 c-11 -7 -16 -25 -14 -53 0 -9 15 -22 31 -29 39 -16 38 -38
-2 -42 -39 -4 -47 -23 -13 -32 38 -10 79 13 83 47 3 22 -3 31 -32 48 -44 26
-46 39 -6 39 20 0 30 5 30 15 0 16 -55 21 -77 7z"/>
<path d="M1380 430 c0 -64 3 -80 15 -80 10 0 15 10 15 30 0 25 4 30 25 30 31
0 34 27 3 32 -34 5 -35 36 -2 40 49 6 41 28 -10 28 l-46 0 0 -80z"/>
<path d="M1505 460 c14 -27 25 -63 25 -80 0 -23 4 -30 20 -30 16 0 20 7 20 30
0 17 11 53 25 80 25 49 25 50 5 50 -14 0 -24 -10 -31 -30 -6 -16 -14 -30 -18
-30 -4 0 -12 14 -18 30 -8 20 -18 30 -32 30 -21 0 -21 0 4 -50z"/>
</g>
</svg>
